<svg width="175" height="61" viewBox="0 0 175 61" fill="none" xmlns="http://www.w3.org/2000/svg">
<path d="M25.76 29.68H18.8V52H9.2V29.68H2.24V22H25.76V29.68ZM28.88 28H33.68L36.32 30.688C38.208 28.96 40.576 27.824 43.424 27.28L44 36.352C43.232 36.384 42.224 36.576 40.976 36.928C39.76 37.28 38.928 37.728 38.48 38.272V52H28.88V28ZM58.736 27.28C66.416 27.28 70.256 29.92 70.256 35.2V52H65.456L62.72 49.264C61.792 50.352 60.528 51.2 58.928 51.808C57.328 52.416 55.808 52.72 54.368 52.72C52.96 52.72 51.824 52.608 50.96 52.384C50.096 52.16 49.248 51.776 48.416 51.232C46.592 50.08 45.68 47.936 45.68 44.8C45.68 39.04 50.032 36.16 58.736 36.16H60.656V34.432C59.632 34.368 58.784 34.336 58.112 34.336C54.496 34.336 51.392 34.768 48.8 35.632L47.648 28.768C50.848 27.776 54.544 27.28 58.736 27.28ZM55.376 43.744V45.712H57.344C58.752 45.712 59.648 45.552 60.032 45.232C60.448 44.912 60.656 44.496 60.656 43.984V41.728H58.688C57.536 41.728 56.688 41.856 56.144 42.112C55.632 42.336 55.376 42.88 55.376 43.744ZM78.6744 52L72.6744 28H82.2744L84.9144 43.6H85.3944L88.0344 28H97.6344L91.6344 52H78.6744ZM109.852 43.84V45.52C110.812 45.616 111.772 45.664 112.732 45.664C115.708 45.664 118.716 45.184 121.756 44.224L122.908 51.28C119.324 52.24 115.772 52.72 112.252 52.72C107.772 52.72 104.524 51.68 102.508 49.6C100.524 47.488 99.5319 44.288 99.5319 40C99.5319 35.712 100.524 32.528 102.508 30.448C104.524 28.336 107.756 27.28 112.204 27.28C116.684 27.28 119.772 27.888 121.468 29.104C123.164 30.32 124.012 32.592 124.012 35.92C124.012 38.736 122.988 40.768 120.94 42.016C118.924 43.232 115.228 43.84 109.852 43.84ZM109.852 36.304V38.272H111.82C112.972 38.272 113.804 38.16 114.316 37.936C114.86 37.68 115.132 37.12 115.132 36.256V34.288H113.164C112.012 34.288 111.164 34.416 110.62 34.672C110.108 34.896 109.852 35.44 109.852 36.304ZM137.473 43.84V45.52C138.433 45.616 139.393 45.664 140.353 45.664C143.329 45.664 146.337 45.184 149.377 44.224L150.529 51.28C146.945 52.24 143.393 52.72 139.873 52.72C135.393 52.72 132.145 51.68 130.129 49.6C128.145 47.488 127.153 44.288 127.153 40C127.153 35.712 128.145 32.528 130.129 30.448C132.145 28.336 135.377 27.28 139.825 27.28C144.305 27.28 147.393 27.888 149.089 29.104C150.785 30.32 151.633 32.592 151.633 35.92C151.633 38.736 150.609 40.768 148.561 42.016C146.545 43.232 142.849 43.84 137.473 43.84ZM137.473 36.304V38.272H139.441C140.593 38.272 141.425 38.16 141.937 37.936C142.481 37.68 142.753 37.12 142.753 36.256V34.288H140.785C139.633 34.288 138.785 34.416 138.241 34.672C137.729 34.896 137.473 35.44 137.473 36.304Z" fill="#404040"/>
<path d="M173.343 6.09789C165.937 10.4431 166.468 19.3681 161.279 23.3954C157.374 26.4265 151.865 24.8914 148.679 23.5875C148.679 23.5875 146.52 26.3126 144.971 29.9455C144.453 31.1644 142.176 29.8214 142.576 28.7895C147.639 15.725 164.863 9.20719 164.863 9.20719C164.863 9.20719 152.71 8.6921 144.587 19.3052C144.369 16.881 144.009 10.3224 150.299 6.30019C158.826 0.841495 175.071 5.08469 173.343 6.09789Z" fill="#404040"/>
<path d="M22.7927 12.3236C20.4151 11.3436 16.5896 10.7196 13.1094 10.7196C10.9767 10.7196 9.66656 7.55658 9.30139 5.48458L10.6804 3.47758C10.9896 3.02761 11.4304 2.6546 11.9594 2.39546C12.4883 2.13631 13.087 2 13.6962 2C14.3055 2 14.9042 2.13631 15.4331 2.39546C15.962 2.6546 16.4029 3.02761 16.7121 3.47758L22.7927 12.3236ZM24.7446 15.1626L24.9079 15.3986C25.2212 15.8543 25.3883 16.373 25.3924 16.9019C25.3964 17.4309 25.2372 17.9514 24.9309 18.4106C24.6246 18.8698 24.182 19.2515 23.6482 19.5168C23.1143 19.7822 22.508 19.9218 21.8909 19.9216H5.5004C4.88335 19.9216 4.27725 19.7819 3.74354 19.5164C3.20982 19.251 2.76745 18.8694 2.46127 18.4102C2.15509 17.951 1.99599 17.4306 2.00008 16.9017C2.00417 16.3728 2.17131 15.8542 2.48456 15.3986L7.7544 7.73458C8.2409 10.4946 10.2557 12.7196 13.1094 12.7196C16.3142 12.7196 20.9377 13.2556 24.7446 15.1626Z" fill="#404040"/>
</svg>
